M48
;Layer_Color=9474304
;FILE_FORMAT=4:4
METRIC
;TYPE=PLATED
T1F00S00C0.7112
T2F00S00C0.9000
T3F00S00C0.9200
T4F00S00C0.9300
T5F00S00C1.0000
T6F00S00C2.3000
%
T01
X00302260Y00742950
X00378460Y00764540
X00396240Y00755650
X00393700Y01071880
Y01118870
X00334010Y01117600
X00320040Y01061720
T02
X00277500Y01207340
X00303100
X00328500
T03
X00463290Y00624980
Y00649980
X00494290
Y00624980
T04
X00544830Y00690770
Y00716170
Y00741570
Y00766970
Y00792370
Y00817770
X00528320Y00878730
Y00904130
Y00929530
Y00954930
Y00980330
Y01005730
T05
X00440690Y01212850
X00506260Y01215390
X00556260
X00390690Y01212850
T06
X00415290Y00601980
X00543290
M30
