M48
;Layer_Color=9474304
;FILE_FORMAT=4:4
METRIC
;TYPE=PLATED
T1F00S00C0.7112
T2F00S00C0.9000
T3F00S00C0.9200
T4F00S00C0.9300
T5F00S00C1.0000
T6F00S00C2.3000
%
T01
X00397510Y00753110
X00381000Y00764540
X00302260Y00742950
X00320040Y01061720
X00334010Y01117600
X00393700Y01118870
Y01071880
X00398780Y01151890
X00463550Y00929640
X00455930Y00904240
T02
X00281940Y01211580
X00307340
X00332740
T03
X00332480Y00346850
Y00371850
X00363480
Y00346850
T04
X00544830Y00690770
Y00716170
Y00741570
Y00766970
Y00792370
Y00817770
X00528320Y00878730
Y00904130
Y00929530
Y00954930
Y00980330
Y01005730
T05
X00411480Y01212850
X00445300
X00495300
X00361480
T06
X00284480Y00323850
X00412480
M30
