%FSLAX44Y44*%
%MOMM*%
G71*
G01*
G75*
G04 Layer_Color=16711935*
%ADD10R,2.0000X3.1000*%
%ADD11R,2.0000X0.8400*%
%ADD12R,5.5000X1.5000*%
%ADD13R,0.6000X0.9000*%
%ADD14R,0.9000X0.6000*%
%ADD15R,0.6000X2.0000*%
%ADD16R,1.6000X2.1800*%
%ADD17C,1.0000*%
%ADD18C,0.2540*%
%ADD19C,0.5000*%
%ADD20C,0.4000*%
%ADD21C,0.3000*%
%ADD22C,1.7000*%
%ADD23C,3.0000*%
%ADD24C,2.0000*%
%ADD25R,2.0000X2.0000*%
%ADD26C,1.6000*%
%ADD27C,1.5000*%
%ADD28C,1.2700*%
%ADD29C,0.1000*%
%ADD30C,0.2000*%
%ADD31R,2.2032X3.3032*%
%ADD32R,2.2032X1.0432*%
%ADD33R,5.7032X1.7032*%
%ADD34R,0.8032X1.1032*%
%ADD35R,1.1032X0.8032*%
%ADD36R,0.8032X2.2032*%
%ADD37R,1.8032X2.3832*%
%ADD38C,1.9032*%
%ADD39C,3.2032*%
%ADD40C,2.2032*%
%ADD41R,2.2032X2.2032*%
%ADD42C,1.8032*%
%ADD43C,1.7032*%
%ADD44C,1.4732*%
D38*
X463290Y649980D02*
D03*
X494290D02*
D03*
Y624980D02*
D03*
X463290D02*
D03*
D39*
X415290Y601980D02*
D03*
X543290D02*
D03*
D40*
X556260Y1215390D02*
D03*
X440690Y1212850D02*
D03*
D41*
X506260Y1215390D02*
D03*
X390690Y1212850D02*
D03*
D42*
X528320Y1005730D02*
D03*
Y980330D02*
D03*
Y954930D02*
D03*
Y929530D02*
D03*
Y904130D02*
D03*
Y878730D02*
D03*
X544830Y817770D02*
D03*
Y792370D02*
D03*
Y766970D02*
D03*
Y741570D02*
D03*
Y716170D02*
D03*
Y690770D02*
D03*
D43*
X328500Y1207340D02*
D03*
X303100D02*
D03*
X277500D02*
D03*
D44*
X396240Y755650D02*
D03*
X378460Y764540D02*
D03*
X393700Y1071880D02*
D03*
X320040Y1061720D02*
D03*
X393700Y1118870D02*
D03*
X334010Y1117600D02*
D03*
X302260Y742950D02*
D03*
M02*
