%FSLAX44Y44*%
%MOMM*%
G71*
G01*
G75*
%ADD10R,2.0000X3.1000*%
%ADD11R,2.0000X0.8400*%
%ADD12R,5.5000X1.5000*%
%ADD13R,0.6000X0.9000*%
%ADD14R,0.9000X0.6000*%
%ADD15R,0.6000X2.0000*%
%ADD16R,1.6000X2.1800*%
%ADD17C,1.0000*%
%ADD18C,0.2540*%
%ADD19C,0.5000*%
%ADD20C,0.4000*%
%ADD21C,0.3000*%
%ADD22C,1.7000*%
%ADD23C,3.0000*%
%ADD24C,2.0000*%
%ADD25R,2.0000X2.0000*%
%ADD26C,1.6000*%
%ADD27C,1.5000*%
%ADD28C,1.2700*%
%ADD29C,0.1000*%
%ADD30C,0.2000*%
%ADD31C,0.1500*%
%ADD32R,2.2032X3.3032*%
%ADD33R,2.2032X1.0432*%
%ADD34R,5.7032X1.7032*%
%ADD35R,0.8032X1.1032*%
%ADD36R,1.1032X0.8032*%
%ADD37R,0.8032X2.2032*%
%ADD38R,1.8032X2.3832*%
%ADD39C,1.9032*%
%ADD40C,3.2032*%
%ADD41C,2.2032*%
%ADD42R,2.2032X2.2032*%
%ADD43C,1.8032*%
%ADD44C,1.7032*%
%ADD45C,1.4732*%
%ADD46C,0.8000*%
%ADD47C,0.0847*%
%ADD48C,0.3810*%
%ADD49C,0.4064*%
%ADD50C,0.1270*%
D50*
X458690Y649980D02*
X467890D01*
X463290Y645380D02*
Y654580D01*
X489690Y649980D02*
X498890D01*
X494290Y645380D02*
Y654580D01*
X489690Y624980D02*
X498890D01*
X494290Y620380D02*
Y629580D01*
X403790Y601980D02*
X426790D01*
X415290Y590480D02*
Y613480D01*
X458690Y624980D02*
X467890D01*
X463290Y620380D02*
Y629580D01*
X531790Y601980D02*
X554790D01*
X543290Y590480D02*
Y613480D01*
X551260Y1215390D02*
X561260D01*
X556260Y1210390D02*
Y1220390D01*
X501260Y1215390D02*
X511260D01*
X506260Y1210390D02*
Y1220390D01*
X523670Y1005730D02*
X532970D01*
X528320Y1001080D02*
Y1010380D01*
X523670Y980330D02*
X532970D01*
X528320Y975680D02*
Y984980D01*
X523670Y954930D02*
X532970D01*
X528320Y950280D02*
Y959580D01*
X523670Y929530D02*
X532970D01*
X528320Y924880D02*
Y934180D01*
X523670Y904130D02*
X532970D01*
X528320Y899480D02*
Y908780D01*
X523670Y878730D02*
X532970D01*
X528320Y874080D02*
Y883380D01*
X540180Y817770D02*
X549480D01*
X544830Y813120D02*
Y822420D01*
X540180Y792370D02*
X549480D01*
X544830Y787720D02*
Y797020D01*
X540180Y766970D02*
X549480D01*
X544830Y762320D02*
Y771620D01*
X540180Y741570D02*
X549480D01*
X544830Y736920D02*
Y746220D01*
X540180Y716170D02*
X549480D01*
X544830Y711520D02*
Y720820D01*
X540180Y690770D02*
X549480D01*
X544830Y686120D02*
Y695420D01*
X435690Y1212850D02*
X445690D01*
X440690Y1207850D02*
Y1217850D01*
X385690Y1212850D02*
X395690D01*
X390690Y1207850D02*
Y1217850D01*
X324000Y1207340D02*
X333000D01*
X328500Y1202840D02*
Y1211840D01*
X298600Y1207340D02*
X307600D01*
X303100Y1202840D02*
Y1211840D01*
X273000Y1207340D02*
X282000D01*
X277500Y1202840D02*
Y1211840D01*
X392684Y755650D02*
X399796D01*
X396240Y752094D02*
Y759206D01*
X374904Y764540D02*
X382016D01*
X378460Y760984D02*
Y768096D01*
X390144Y1071880D02*
X397256D01*
X393700Y1068324D02*
Y1075436D01*
X316484Y1061720D02*
X323596D01*
X320040Y1058164D02*
Y1065276D01*
X390144Y1118870D02*
X397256D01*
X393700Y1115314D02*
Y1122426D01*
X330454Y1117600D02*
X337566D01*
X334010Y1114044D02*
Y1121156D01*
X298704Y742950D02*
X305816D01*
X302260Y739394D02*
Y746506D01*
M02*
