%FSLAX44Y44*%
%MOMM*%
G71*
G01*
G75*
G04 Layer_Color=65535*
%ADD10R,1.6000X2.1800*%
%ADD11R,0.9000X0.6000*%
%ADD12R,0.6000X0.9000*%
%ADD13R,0.6000X2.0000*%
%ADD14R,5.5000X1.5000*%
%ADD15R,2.0000X0.8400*%
%ADD16R,2.0000X3.1000*%
%ADD17C,0.5000*%
%ADD18C,0.2540*%
%ADD19C,0.3000*%
%ADD20C,1.0000*%
%ADD21C,0.4000*%
%ADD22C,1.5000*%
%ADD23R,2.0000X2.0000*%
%ADD24C,2.0000*%
%ADD25C,1.6000*%
%ADD26C,3.0000*%
%ADD27C,1.7000*%
%ADD28C,1.2700*%
%ADD29C,0.2000*%
%ADD30C,0.1000*%
D18*
X549893Y836770D02*
X554830D01*
X544955Y831833D02*
X549893Y836770D01*
X535080D02*
X540018D01*
X544955Y831833D01*
X549767Y676770D02*
X554705D01*
X544830Y671833D02*
X549767Y676770D01*
X534955D02*
X539892D01*
X544830Y671833D01*
X533383Y1024730D02*
X538320D01*
X528445Y1019793D02*
X533383Y1024730D01*
X518570D02*
X523508D01*
X528445Y1019793D01*
X533257Y864730D02*
X538195D01*
X528320Y859792D02*
X533257Y864730D01*
X518445D02*
X523382D01*
X528320Y859792D01*
X448370Y991900D02*
Y1001900D01*
X323320Y991900D02*
Y1001900D01*
X448370D01*
Y953900D02*
Y962900D01*
X323320Y953900D02*
Y962900D01*
Y953900D02*
X448370D01*
X265762Y1261183D02*
Y1248487D01*
X268301Y1245948D01*
X273380D01*
X275919Y1248487D01*
Y1261183D01*
X280997Y1245948D02*
X286076D01*
X283536D01*
Y1261183D01*
X280997Y1258644D01*
X369567Y640075D02*
X364488D01*
X367028D01*
Y627379D01*
X364488Y624840D01*
X361949D01*
X359410Y627379D01*
X374645Y637536D02*
X377184Y640075D01*
X382263D01*
X384802Y637536D01*
Y634997D01*
X382263Y632458D01*
X379723D01*
X382263D01*
X384802Y629918D01*
Y627379D01*
X382263Y624840D01*
X377184D01*
X374645Y627379D01*
X471167Y1075686D02*
X468628Y1078225D01*
X463549D01*
X461010Y1075686D01*
Y1065529D01*
X463549Y1062990D01*
X468628D01*
X471167Y1065529D01*
X476245Y1062990D02*
X481323D01*
X478784D01*
Y1078225D01*
X476245Y1075686D01*
X271777Y1141726D02*
X269237Y1144265D01*
X264159D01*
X261620Y1141726D01*
Y1131569D01*
X264159Y1129030D01*
X269237D01*
X271777Y1131569D01*
X287012Y1129030D02*
X276855D01*
X287012Y1139187D01*
Y1141726D01*
X284473Y1144265D01*
X279394D01*
X276855Y1141726D01*
X287017Y909316D02*
X284478Y911855D01*
X279399D01*
X276860Y909316D01*
Y899159D01*
X279399Y896620D01*
X284478D01*
X287017Y899159D01*
X292095Y909316D02*
X294634Y911855D01*
X299713D01*
X302252Y909316D01*
Y906777D01*
X299713Y904238D01*
X297173D01*
X299713D01*
X302252Y901698D01*
Y899159D01*
X299713Y896620D01*
X294634D01*
X292095Y899159D01*
X323847Y768346D02*
X321307Y770885D01*
X316229D01*
X313690Y768346D01*
Y758189D01*
X316229Y755650D01*
X321307D01*
X323847Y758189D01*
X336543Y755650D02*
Y770885D01*
X328925Y763268D01*
X339082D01*
X322577Y730246D02*
X320037Y732785D01*
X314959D01*
X312420Y730246D01*
Y720089D01*
X314959Y717550D01*
X320037D01*
X322577Y720089D01*
X337812Y732785D02*
X327655D01*
Y725167D01*
X332733Y727707D01*
X335273D01*
X337812Y725167D01*
Y720089D01*
X335273Y717550D01*
X330194D01*
X327655Y720089D01*
X483867Y756916D02*
X481328Y759455D01*
X476249D01*
X473710Y756916D01*
Y746759D01*
X476249Y744220D01*
X481328D01*
X483867Y746759D01*
X499102Y759455D02*
X494023Y756916D01*
X488945Y751837D01*
Y746759D01*
X491484Y744220D01*
X496563D01*
X499102Y746759D01*
Y749298D01*
X496563Y751837D01*
X488945D01*
X368297Y694686D02*
X365757Y697225D01*
X360679D01*
X358140Y694686D01*
Y684529D01*
X360679Y681990D01*
X365757D01*
X368297Y684529D01*
X373375Y697225D02*
X383532D01*
Y694686D01*
X373375Y684529D01*
Y681990D01*
X378457Y930906D02*
X375918Y933445D01*
X370839D01*
X368300Y930906D01*
Y920749D01*
X370839Y918210D01*
X375918D01*
X378457Y920749D01*
X383535Y930906D02*
X386074Y933445D01*
X391153D01*
X393692Y930906D01*
Y928367D01*
X391153Y925827D01*
X393692Y923288D01*
Y920749D01*
X391153Y918210D01*
X386074D01*
X383535Y920749D01*
Y923288D01*
X386074Y925827D01*
X383535Y928367D01*
Y930906D01*
X386074Y925827D02*
X391153D01*
X325117Y928366D02*
X322578Y930905D01*
X317499D01*
X314960Y928366D01*
Y918209D01*
X317499Y915670D01*
X322578D01*
X325117Y918209D01*
X330195D02*
X332734Y915670D01*
X337813D01*
X340352Y918209D01*
Y928366D01*
X337813Y930905D01*
X332734D01*
X330195Y928366D01*
Y925827D01*
X332734Y923288D01*
X340352D01*
X364075Y558282D02*
X362909Y559448D01*
X360576D01*
X359410Y558282D01*
Y553616D01*
X360576Y552450D01*
X362909D01*
X364075Y553616D01*
X366408Y552450D02*
X368740D01*
X367574D01*
Y559448D01*
X366408Y558282D01*
X372239D02*
X373405Y559448D01*
X375738D01*
X376904Y558282D01*
Y553616D01*
X375738Y552450D01*
X373405D01*
X372239Y553616D01*
Y558282D01*
X382270Y1246627D02*
Y1231392D01*
X389888D01*
X392427Y1233931D01*
Y1244088D01*
X389888Y1246627D01*
X382270D01*
X407662Y1231392D02*
X397505D01*
X407662Y1241549D01*
Y1244088D01*
X405123Y1246627D01*
X400044D01*
X397505Y1244088D01*
X525777Y1047745D02*
X520698D01*
X523237D01*
Y1035049D01*
X520698Y1032510D01*
X518159D01*
X515620Y1035049D01*
X530855Y1032510D02*
X535933D01*
X533394D01*
Y1047745D01*
X530855Y1045206D01*
X509267Y711195D02*
X504188D01*
X506727D01*
Y698499D01*
X504188Y695960D01*
X501649D01*
X499110Y698499D01*
X524502Y695960D02*
X514345D01*
X524502Y706117D01*
Y708656D01*
X521963Y711195D01*
X516884D01*
X514345Y708656D01*
X408940Y1064260D02*
Y1079495D01*
X416558D01*
X419097Y1076956D01*
Y1071878D01*
X416558Y1069338D01*
X408940D01*
X414018D02*
X419097Y1064260D01*
X424175D02*
X429253D01*
X426714D01*
Y1079495D01*
X424175Y1076956D01*
X463550Y1148080D02*
Y1163315D01*
X471167D01*
X473707Y1160776D01*
Y1155697D01*
X471167Y1153158D01*
X463550D01*
X468628D02*
X473707Y1148080D01*
X488942D02*
X478785D01*
X488942Y1158237D01*
Y1160776D01*
X486403Y1163315D01*
X481324D01*
X478785Y1160776D01*
X445262Y1112266D02*
Y1127501D01*
X452879D01*
X455419Y1124962D01*
Y1119883D01*
X452879Y1117344D01*
X445262D01*
X450340D02*
X455419Y1112266D01*
X460497Y1124962D02*
X463036Y1127501D01*
X468115D01*
X470654Y1124962D01*
Y1122423D01*
X468115Y1119883D01*
X465575D01*
X468115D01*
X470654Y1117344D01*
Y1114805D01*
X468115Y1112266D01*
X463036D01*
X460497Y1114805D01*
X260350Y1071880D02*
Y1087115D01*
X267967D01*
X270507Y1084576D01*
Y1079498D01*
X267967Y1076958D01*
X260350D01*
X265428D02*
X270507Y1071880D01*
X283203D02*
Y1087115D01*
X275585Y1079498D01*
X285742D01*
X375920Y1168400D02*
Y1183635D01*
X383537D01*
X386077Y1181096D01*
Y1176018D01*
X383537Y1173478D01*
X375920D01*
X380998D02*
X386077Y1168400D01*
X401312Y1183635D02*
X391155D01*
Y1176018D01*
X396233Y1178557D01*
X398773D01*
X401312Y1176018D01*
Y1170939D01*
X398773Y1168400D01*
X393694D01*
X391155Y1170939D01*
X450850Y822955D02*
Y810259D01*
X453389Y807720D01*
X458467D01*
X461007Y810259D01*
Y822955D01*
X476242Y807720D02*
X466085D01*
X476242Y817877D01*
Y820416D01*
X473703Y822955D01*
X468624D01*
X466085Y820416D01*
X528317Y1187446D02*
X525778Y1189985D01*
X520699D01*
X518160Y1187446D01*
Y1184907D01*
X520699Y1182367D01*
X525778D01*
X528317Y1179828D01*
Y1177289D01*
X525778Y1174750D01*
X520699D01*
X518160Y1177289D01*
X533395Y1174750D02*
X538473D01*
X535934D01*
Y1189985D01*
X533395Y1187446D01*
X521970Y1224275D02*
Y1209040D01*
X529588D01*
X532127Y1211579D01*
Y1221736D01*
X529588Y1224275D01*
X521970D01*
X537205Y1209040D02*
X542283D01*
X539744D01*
Y1224275D01*
X537205Y1221736D01*
X315468Y1025901D02*
Y1023362D01*
X320546Y1018283D01*
X325625Y1023362D01*
Y1025901D01*
X320546Y1018283D02*
Y1010666D01*
X330703D02*
X335781D01*
X333242D01*
Y1025901D01*
X330703Y1023362D01*
X279400Y584195D02*
Y571499D01*
X281939Y568960D01*
X287017D01*
X289557Y571499D01*
Y584195D01*
X294635Y581656D02*
X297174Y584195D01*
X302253D01*
X304792Y581656D01*
Y579117D01*
X302253Y576577D01*
X299713D01*
X302253D01*
X304792Y574038D01*
Y571499D01*
X302253Y568960D01*
X297174D01*
X294635Y571499D01*
D29*
X341100Y1200340D02*
Y1214340D01*
X264100Y1237340D02*
X333100D01*
X264100Y1177340D02*
Y1237340D01*
Y1177340D02*
X333100D01*
Y1222340D02*
X341100Y1214340D01*
X333100Y1222340D02*
Y1237340D01*
Y1192340D02*
X341100Y1200340D01*
X333100Y1177340D02*
Y1192340D01*
X489830Y795720D02*
Y870720D01*
X281330Y795720D02*
Y870720D01*
D30*
X510820Y1077690D02*
X545820D01*
X510820Y1143690D02*
X545820D01*
X510820Y1077690D02*
Y1143690D01*
X545820Y1077690D02*
Y1143690D01*
X295910Y648650D02*
Y662940D01*
X353060D01*
X295910Y594360D02*
X353060D01*
X295910D02*
Y608650D01*
X395290Y651980D02*
Y662980D01*
X405290D01*
X549290Y539980D02*
X559290D01*
Y550980D01*
X560290Y651980D02*
Y661980D01*
X549290D02*
X560290D01*
X396290Y539980D02*
Y549980D01*
Y539980D02*
X407290D01*
X496570Y861060D02*
X499902D01*
X498236D01*
Y871057D01*
X496570Y869391D01*
M02*
