%FSLAX44Y44*%
%MOMM*%
G71*
G01*
G75*
G04 Layer_Color=128*
%ADD10R,2.0000X3.1000*%
%ADD11R,2.0000X0.8400*%
%ADD12R,5.5000X1.5000*%
%ADD13R,0.6000X0.9000*%
%ADD14R,0.9000X0.6000*%
%ADD15R,0.6000X2.0000*%
%ADD16R,1.6000X2.1800*%
%ADD17C,1.0000*%
%ADD18C,0.2540*%
%ADD19C,0.5000*%
%ADD20C,0.4000*%
%ADD21C,0.3000*%
%ADD22C,1.7000*%
%ADD23C,3.0000*%
%ADD24C,2.0000*%
%ADD25R,2.0000X2.0000*%
%ADD26C,1.6000*%
%ADD27C,1.5000*%
%ADD28C,1.2700*%
%ADD29C,0.1000*%
%ADD30C,0.2000*%
%ADD31C,0.1500*%
%ADD32R,2.2032X3.3032*%
%ADD33R,2.2032X1.0432*%
%ADD34R,5.7032X1.7032*%
%ADD35R,0.8032X1.1032*%
%ADD36R,1.1032X0.8032*%
%ADD37R,0.8032X2.2032*%
%ADD38R,1.8032X2.3832*%
%ADD39C,1.9032*%
%ADD40C,3.2032*%
%ADD41C,2.2032*%
%ADD42R,2.2032X2.2032*%
%ADD43C,1.8032*%
%ADD44C,1.7032*%
%ADD45C,1.4732*%
%ADD46C,0.8000*%
%ADD47C,0.0847*%
%ADD48C,0.3810*%
%ADD49C,0.4064*%
D18*
X1437863Y773430D02*
Y788665D01*
X1445480D01*
X1448019Y786126D01*
Y781048D01*
X1445480Y778508D01*
X1437863D01*
X1442941D02*
X1448019Y773430D01*
X1455637D02*
X1460715D01*
X1463254Y775969D01*
Y781048D01*
X1460715Y783587D01*
X1455637D01*
X1453098Y781048D01*
Y775969D01*
X1455637Y773430D01*
X1468333Y783587D02*
Y775969D01*
X1470872Y773430D01*
X1478489D01*
Y783587D01*
X1483568Y773430D02*
Y783587D01*
X1491185D01*
X1493724Y781048D01*
Y773430D01*
X1508960Y788665D02*
Y773430D01*
X1501342D01*
X1498803Y775969D01*
Y781048D01*
X1501342Y783587D01*
X1508960D01*
X1437863Y735330D02*
Y750565D01*
X1445480D01*
X1448019Y748026D01*
Y742947D01*
X1445480Y740408D01*
X1437863D01*
X1442941D02*
X1448019Y735330D01*
X1455637D02*
X1460715D01*
X1463254Y737869D01*
Y742947D01*
X1460715Y745487D01*
X1455637D01*
X1453098Y742947D01*
Y737869D01*
X1455637Y735330D01*
X1468333Y745487D02*
Y737869D01*
X1470872Y735330D01*
X1478489D01*
Y745487D01*
X1483568Y735330D02*
Y745487D01*
X1491185D01*
X1493724Y742947D01*
Y735330D01*
X1508960Y750565D02*
Y735330D01*
X1501342D01*
X1498803Y737869D01*
Y742947D01*
X1501342Y745487D01*
X1508960D01*
X1437863Y697230D02*
Y712465D01*
X1445480D01*
X1448019Y709926D01*
Y704847D01*
X1445480Y702308D01*
X1437863D01*
X1442941D02*
X1448019Y697230D01*
X1455637D02*
X1460715D01*
X1463254Y699769D01*
Y704847D01*
X1460715Y707387D01*
X1455637D01*
X1453098Y704847D01*
Y699769D01*
X1455637Y697230D01*
X1468333Y707387D02*
Y699769D01*
X1470872Y697230D01*
X1478489D01*
Y707387D01*
X1483568Y697230D02*
Y707387D01*
X1491185D01*
X1493724Y704847D01*
Y697230D01*
X1508960Y712465D02*
Y697230D01*
X1501342D01*
X1498803Y699769D01*
Y704847D01*
X1501342Y707387D01*
X1508960D01*
X1437863Y659130D02*
Y674365D01*
X1445480D01*
X1448019Y671826D01*
Y666748D01*
X1445480Y664208D01*
X1437863D01*
X1442941D02*
X1448019Y659130D01*
X1455637D02*
X1460715D01*
X1463254Y661669D01*
Y666748D01*
X1460715Y669287D01*
X1455637D01*
X1453098Y666748D01*
Y661669D01*
X1455637Y659130D01*
X1468333Y669287D02*
Y661669D01*
X1470872Y659130D01*
X1478489D01*
Y669287D01*
X1483568Y659130D02*
Y669287D01*
X1491185D01*
X1493724Y666748D01*
Y659130D01*
X1508960Y674365D02*
Y659130D01*
X1501342D01*
X1498803Y661669D01*
Y666748D01*
X1501342Y669287D01*
X1508960D01*
X1437863Y621030D02*
Y636265D01*
X1445480D01*
X1448019Y633726D01*
Y628647D01*
X1445480Y626108D01*
X1437863D01*
X1442941D02*
X1448019Y621030D01*
X1455637D02*
X1460715D01*
X1463254Y623569D01*
Y628647D01*
X1460715Y631187D01*
X1455637D01*
X1453098Y628647D01*
Y623569D01*
X1455637Y621030D01*
X1468333Y631187D02*
Y623569D01*
X1470872Y621030D01*
X1478489D01*
Y631187D01*
X1483568Y621030D02*
Y631187D01*
X1491185D01*
X1493724Y628647D01*
Y621030D01*
X1508960Y636265D02*
Y621030D01*
X1501342D01*
X1498803Y623569D01*
Y628647D01*
X1501342Y631187D01*
X1508960D01*
X1437863Y582930D02*
Y598165D01*
X1445480D01*
X1448019Y595626D01*
Y590547D01*
X1445480Y588008D01*
X1437863D01*
X1442941D02*
X1448019Y582930D01*
X1455637D02*
X1460715D01*
X1463254Y585469D01*
Y590547D01*
X1460715Y593087D01*
X1455637D01*
X1453098Y590547D01*
Y585469D01*
X1455637Y582930D01*
X1468333Y593087D02*
Y585469D01*
X1470872Y582930D01*
X1478489D01*
Y593087D01*
X1483568Y582930D02*
Y593087D01*
X1491185D01*
X1493724Y590547D01*
Y582930D01*
X1508960Y598165D02*
Y582930D01*
X1501342D01*
X1498803Y585469D01*
Y590547D01*
X1501342Y593087D01*
X1508960D01*
X1309370Y773430D02*
Y788665D01*
X1316987D01*
X1319527Y786126D01*
Y781048D01*
X1316987Y778508D01*
X1309370D01*
X1324605Y788665D02*
X1334762D01*
X1329683D01*
Y773430D01*
X1339840Y788665D02*
Y773430D01*
Y781048D01*
X1349997D01*
Y788665D01*
Y773430D01*
X1309370Y735330D02*
Y750565D01*
X1316987D01*
X1319527Y748026D01*
Y742947D01*
X1316987Y740408D01*
X1309370D01*
X1324605Y750565D02*
X1334762D01*
X1329683D01*
Y735330D01*
X1339840Y750565D02*
Y735330D01*
Y742947D01*
X1349997D01*
Y750565D01*
Y735330D01*
X1309370Y697230D02*
Y712465D01*
X1316987D01*
X1319527Y709926D01*
Y704847D01*
X1316987Y702308D01*
X1309370D01*
X1324605Y712465D02*
X1334762D01*
X1329683D01*
Y697230D01*
X1339840Y712465D02*
Y697230D01*
Y704847D01*
X1349997D01*
Y712465D01*
Y697230D01*
X1309370Y659130D02*
Y674365D01*
X1316987D01*
X1319527Y671826D01*
Y666748D01*
X1316987Y664208D01*
X1309370D01*
X1324605Y674365D02*
X1334762D01*
X1329683D01*
Y659130D01*
X1339840Y674365D02*
Y659130D01*
Y666748D01*
X1349997D01*
Y674365D01*
Y659130D01*
X1309370Y621030D02*
Y636265D01*
X1316987D01*
X1319527Y633726D01*
Y628647D01*
X1316987Y626108D01*
X1309370D01*
X1324605Y636265D02*
X1334762D01*
X1329683D01*
Y621030D01*
X1339840Y636265D02*
Y621030D01*
Y628647D01*
X1349997D01*
Y636265D01*
Y621030D01*
X1309370Y582930D02*
Y598165D01*
X1316987D01*
X1319527Y595626D01*
Y590547D01*
X1316987Y588008D01*
X1309370D01*
X1324605Y598165D02*
X1334762D01*
X1329683D01*
Y582930D01*
X1339840Y598165D02*
Y582930D01*
Y590547D01*
X1349997D01*
Y598165D01*
Y582930D01*
X977743Y773430D02*
X967587D01*
X977743Y783587D01*
Y786126D01*
X975204Y788665D01*
X970126D01*
X967587Y786126D01*
X982822Y773430D02*
Y775969D01*
X985361D01*
Y773430D01*
X982822D01*
X995518Y786126D02*
X998057Y788665D01*
X1003135D01*
X1005674Y786126D01*
Y783587D01*
X1003135Y781048D01*
X1000596D01*
X1003135D01*
X1005674Y778508D01*
Y775969D01*
X1003135Y773430D01*
X998057D01*
X995518Y775969D01*
X1010753Y786126D02*
X1013292Y788665D01*
X1018370D01*
X1020909Y786126D01*
Y775969D01*
X1018370Y773430D01*
X1013292D01*
X1010753Y775969D01*
Y786126D01*
X1025988D02*
X1028527Y788665D01*
X1033605D01*
X1036144Y786126D01*
Y775969D01*
X1033605Y773430D01*
X1028527D01*
X1025988Y775969D01*
Y786126D01*
X1041223Y773430D02*
Y783587D01*
X1043762D01*
X1046301Y781048D01*
Y773430D01*
Y781048D01*
X1048840Y783587D01*
X1051379Y781048D01*
Y773430D01*
X1056458D02*
Y783587D01*
X1058997D01*
X1061536Y781048D01*
Y773430D01*
Y781048D01*
X1064075Y783587D01*
X1066615Y781048D01*
Y773430D01*
X1092006D02*
X1086928Y778508D01*
Y783587D01*
X1092006Y788665D01*
X1099624Y775969D02*
X1102163Y773430D01*
X1107241D01*
X1109781Y775969D01*
Y786126D01*
X1107241Y788665D01*
X1102163D01*
X1099624Y786126D01*
Y783587D01*
X1102163Y781048D01*
X1109781D01*
X1114859Y786126D02*
X1117398Y788665D01*
X1122477D01*
X1125016Y786126D01*
Y775969D01*
X1122477Y773430D01*
X1117398D01*
X1114859Y775969D01*
Y786126D01*
X1130094Y773430D02*
Y775969D01*
X1132633D01*
Y773430D01*
X1130094D01*
X1152947Y788665D02*
X1142790D01*
Y781048D01*
X1147868Y783587D01*
X1150407D01*
X1152947Y781048D01*
Y775969D01*
X1150407Y773430D01*
X1145329D01*
X1142790Y775969D01*
X1168182Y788665D02*
X1158025D01*
Y781048D01*
X1163103Y783587D01*
X1165642D01*
X1168182Y781048D01*
Y775969D01*
X1165642Y773430D01*
X1160564D01*
X1158025Y775969D01*
X1173260Y773430D02*
Y783587D01*
X1175799D01*
X1178338Y781048D01*
Y773430D01*
Y781048D01*
X1180878Y783587D01*
X1183417Y781048D01*
Y773430D01*
X1188495D02*
X1193574D01*
X1191034D01*
Y783587D01*
X1188495D01*
X1201191Y773430D02*
X1206269D01*
X1203730D01*
Y788665D01*
X1201191D01*
X1213887Y773430D02*
X1218965Y778508D01*
Y783587D01*
X1213887Y788665D01*
X967587Y748026D02*
X970126Y750565D01*
X975204D01*
X977743Y748026D01*
Y737869D01*
X975204Y735330D01*
X970126D01*
X967587Y737869D01*
Y748026D01*
X982822Y735330D02*
Y737869D01*
X985361D01*
Y735330D01*
X982822D01*
X995518Y737869D02*
X998057Y735330D01*
X1003135D01*
X1005674Y737869D01*
Y748026D01*
X1003135Y750565D01*
X998057D01*
X995518Y748026D01*
Y745487D01*
X998057Y742947D01*
X1005674D01*
X1010753Y748026D02*
X1013292Y750565D01*
X1018370D01*
X1020909Y748026D01*
Y737869D01*
X1018370Y735330D01*
X1013292D01*
X1010753Y737869D01*
Y748026D01*
X1025988D02*
X1028527Y750565D01*
X1033605D01*
X1036144Y748026D01*
Y737869D01*
X1033605Y735330D01*
X1028527D01*
X1025988Y737869D01*
Y748026D01*
X1041223Y735330D02*
Y745487D01*
X1043762D01*
X1046301Y742947D01*
Y735330D01*
Y742947D01*
X1048840Y745487D01*
X1051379Y742947D01*
Y735330D01*
X1056458D02*
Y745487D01*
X1058997D01*
X1061536Y742947D01*
Y735330D01*
Y742947D01*
X1064075Y745487D01*
X1066615Y742947D01*
Y735330D01*
X1092006D02*
X1086928Y740408D01*
Y745487D01*
X1092006Y750565D01*
X1099624Y748026D02*
X1102163Y750565D01*
X1107241D01*
X1109781Y748026D01*
Y745487D01*
X1107241Y742947D01*
X1104702D01*
X1107241D01*
X1109781Y740408D01*
Y737869D01*
X1107241Y735330D01*
X1102163D01*
X1099624Y737869D01*
X1125016Y750565D02*
X1114859D01*
Y742947D01*
X1119937Y745487D01*
X1122477D01*
X1125016Y742947D01*
Y737869D01*
X1122477Y735330D01*
X1117398D01*
X1114859Y737869D01*
X1130094Y735330D02*
Y737869D01*
X1132633D01*
Y735330D01*
X1130094D01*
X1150407D02*
Y750565D01*
X1142790Y742947D01*
X1152947D01*
X1158025Y748026D02*
X1160564Y750565D01*
X1165642D01*
X1168182Y748026D01*
Y745487D01*
X1165642Y742947D01*
X1163103D01*
X1165642D01*
X1168182Y740408D01*
Y737869D01*
X1165642Y735330D01*
X1160564D01*
X1158025Y737869D01*
X1173260Y735330D02*
Y745487D01*
X1175799D01*
X1178338Y742947D01*
Y735330D01*
Y742947D01*
X1180878Y745487D01*
X1183417Y742947D01*
Y735330D01*
X1188495D02*
X1193574D01*
X1191034D01*
Y745487D01*
X1188495D01*
X1201191Y735330D02*
X1206269D01*
X1203730D01*
Y750565D01*
X1201191D01*
X1213887Y735330D02*
X1218965Y740408D01*
Y745487D01*
X1213887Y750565D01*
X967587Y709926D02*
X970126Y712465D01*
X975204D01*
X977743Y709926D01*
Y699769D01*
X975204Y697230D01*
X970126D01*
X967587Y699769D01*
Y709926D01*
X982822Y697230D02*
Y699769D01*
X985361D01*
Y697230D01*
X982822D01*
X995518Y699769D02*
X998057Y697230D01*
X1003135D01*
X1005674Y699769D01*
Y709926D01*
X1003135Y712465D01*
X998057D01*
X995518Y709926D01*
Y707387D01*
X998057Y704847D01*
X1005674D01*
X1020909Y697230D02*
X1010753D01*
X1020909Y707387D01*
Y709926D01*
X1018370Y712465D01*
X1013292D01*
X1010753Y709926D01*
X1025988D02*
X1028527Y712465D01*
X1033605D01*
X1036144Y709926D01*
Y699769D01*
X1033605Y697230D01*
X1028527D01*
X1025988Y699769D01*
Y709926D01*
X1041223Y697230D02*
Y707387D01*
X1043762D01*
X1046301Y704847D01*
Y697230D01*
Y704847D01*
X1048840Y707387D01*
X1051379Y704847D01*
Y697230D01*
X1056458D02*
Y707387D01*
X1058997D01*
X1061536Y704847D01*
Y697230D01*
Y704847D01*
X1064075Y707387D01*
X1066615Y704847D01*
Y697230D01*
X1092006D02*
X1086928Y702308D01*
Y707387D01*
X1092006Y712465D01*
X1099624Y709926D02*
X1102163Y712465D01*
X1107241D01*
X1109781Y709926D01*
Y707387D01*
X1107241Y704847D01*
X1104702D01*
X1107241D01*
X1109781Y702308D01*
Y699769D01*
X1107241Y697230D01*
X1102163D01*
X1099624Y699769D01*
X1125016Y712465D02*
X1119937Y709926D01*
X1114859Y704847D01*
Y699769D01*
X1117398Y697230D01*
X1122477D01*
X1125016Y699769D01*
Y702308D01*
X1122477Y704847D01*
X1114859D01*
X1130094Y697230D02*
Y699769D01*
X1132633D01*
Y697230D01*
X1130094D01*
X1152947D02*
X1142790D01*
X1152947Y707387D01*
Y709926D01*
X1150407Y712465D01*
X1145329D01*
X1142790Y709926D01*
X1168182Y697230D02*
X1158025D01*
X1168182Y707387D01*
Y709926D01*
X1165642Y712465D01*
X1160564D01*
X1158025Y709926D01*
X1173260Y697230D02*
Y707387D01*
X1175799D01*
X1178338Y704847D01*
Y697230D01*
Y704847D01*
X1180878Y707387D01*
X1183417Y704847D01*
Y697230D01*
X1188495D02*
X1193574D01*
X1191034D01*
Y707387D01*
X1188495D01*
X1201191Y697230D02*
X1206269D01*
X1203730D01*
Y712465D01*
X1201191D01*
X1213887Y697230D02*
X1218965Y702308D01*
Y707387D01*
X1213887Y712465D01*
X967587Y659130D02*
X972665D01*
X970126D01*
Y674365D01*
X967587Y671826D01*
X980283Y659130D02*
Y661669D01*
X982822D01*
Y659130D01*
X980283D01*
X992978Y671826D02*
X995518Y674365D01*
X1000596D01*
X1003135Y671826D01*
Y661669D01*
X1000596Y659130D01*
X995518D01*
X992978Y661669D01*
Y671826D01*
X1008213D02*
X1010753Y674365D01*
X1015831D01*
X1018370Y671826D01*
Y661669D01*
X1015831Y659130D01*
X1010753D01*
X1008213Y661669D01*
Y671826D01*
X1023448D02*
X1025988Y674365D01*
X1031066D01*
X1033605Y671826D01*
Y661669D01*
X1031066Y659130D01*
X1025988D01*
X1023448Y661669D01*
Y671826D01*
X1038684Y659130D02*
Y669287D01*
X1041223D01*
X1043762Y666748D01*
Y659130D01*
Y666748D01*
X1046301Y669287D01*
X1048840Y666748D01*
Y659130D01*
X1053919D02*
Y669287D01*
X1056458D01*
X1058997Y666748D01*
Y659130D01*
Y666748D01*
X1061536Y669287D01*
X1064075Y666748D01*
Y659130D01*
X1089467D02*
X1084389Y664208D01*
Y669287D01*
X1089467Y674365D01*
X1097085Y671826D02*
X1099624Y674365D01*
X1104702D01*
X1107241Y671826D01*
Y669287D01*
X1104702Y666748D01*
X1102163D01*
X1104702D01*
X1107241Y664208D01*
Y661669D01*
X1104702Y659130D01*
X1099624D01*
X1097085Y661669D01*
X1112320D02*
X1114859Y659130D01*
X1119937D01*
X1122477Y661669D01*
Y671826D01*
X1119937Y674365D01*
X1114859D01*
X1112320Y671826D01*
Y669287D01*
X1114859Y666748D01*
X1122477D01*
X1127555Y659130D02*
Y661669D01*
X1130094D01*
Y659130D01*
X1127555D01*
X1140251Y671826D02*
X1142790Y674365D01*
X1147868D01*
X1150407Y671826D01*
Y669287D01*
X1147868Y666748D01*
X1145329D01*
X1147868D01*
X1150407Y664208D01*
Y661669D01*
X1147868Y659130D01*
X1142790D01*
X1140251Y661669D01*
X1155486Y674365D02*
X1165642D01*
Y671826D01*
X1155486Y661669D01*
Y659130D01*
X1170721D02*
Y669287D01*
X1173260D01*
X1175799Y666748D01*
Y659130D01*
Y666748D01*
X1178338Y669287D01*
X1180878Y666748D01*
Y659130D01*
X1185956D02*
X1191034D01*
X1188495D01*
Y669287D01*
X1185956D01*
X1198652Y659130D02*
X1203730D01*
X1201191D01*
Y674365D01*
X1198652D01*
X1211348Y659130D02*
X1216426Y664208D01*
Y669287D01*
X1211348Y674365D01*
X967587Y633726D02*
X970126Y636265D01*
X975204D01*
X977743Y633726D01*
Y623569D01*
X975204Y621030D01*
X970126D01*
X967587Y623569D01*
Y633726D01*
X982822Y621030D02*
Y623569D01*
X985361D01*
Y621030D01*
X982822D01*
X995518Y636265D02*
X1005674D01*
Y633726D01*
X995518Y623569D01*
Y621030D01*
X1010753D02*
X1015831D01*
X1013292D01*
Y636265D01*
X1010753Y633726D01*
X1023448Y621030D02*
X1028527D01*
X1025988D01*
Y636265D01*
X1023448Y633726D01*
X1036144Y621030D02*
Y631187D01*
X1038684D01*
X1041223Y628647D01*
Y621030D01*
Y628647D01*
X1043762Y631187D01*
X1046301Y628647D01*
Y621030D01*
X1051379D02*
Y631187D01*
X1053919D01*
X1056458Y628647D01*
Y621030D01*
Y628647D01*
X1058997Y631187D01*
X1061536Y628647D01*
Y621030D01*
X1086928D02*
X1081850Y626108D01*
Y631187D01*
X1086928Y636265D01*
X1104702Y621030D02*
X1094546D01*
X1104702Y631187D01*
Y633726D01*
X1102163Y636265D01*
X1097085D01*
X1094546Y633726D01*
X1109781D02*
X1112320Y636265D01*
X1117398D01*
X1119937Y633726D01*
Y631187D01*
X1117398Y628647D01*
X1119937Y626108D01*
Y623569D01*
X1117398Y621030D01*
X1112320D01*
X1109781Y623569D01*
Y626108D01*
X1112320Y628647D01*
X1109781Y631187D01*
Y633726D01*
X1112320Y628647D02*
X1117398D01*
X1125016Y621030D02*
Y623569D01*
X1127555D01*
Y621030D01*
X1125016D01*
X1137711Y633726D02*
X1140251Y636265D01*
X1145329D01*
X1147868Y633726D01*
Y623569D01*
X1145329Y621030D01*
X1140251D01*
X1137711Y623569D01*
Y633726D01*
X1152947D02*
X1155486Y636265D01*
X1160564D01*
X1163103Y633726D01*
Y623569D01*
X1160564Y621030D01*
X1155486D01*
X1152947Y623569D01*
Y633726D01*
X1168182Y621030D02*
Y631187D01*
X1170721D01*
X1173260Y628647D01*
Y621030D01*
Y628647D01*
X1175799Y631187D01*
X1178338Y628647D01*
Y621030D01*
X1183417D02*
X1188495D01*
X1185956D01*
Y631187D01*
X1183417D01*
X1196113Y621030D02*
X1201191D01*
X1198652D01*
Y636265D01*
X1196113D01*
X1208809Y621030D02*
X1213887Y626108D01*
Y631187D01*
X1208809Y636265D01*
X967587Y595626D02*
X970126Y598165D01*
X975204D01*
X977743Y595626D01*
Y585469D01*
X975204Y582930D01*
X970126D01*
X967587Y585469D01*
Y595626D01*
X982822Y582930D02*
Y585469D01*
X985361D01*
Y582930D01*
X982822D01*
X995518Y585469D02*
X998057Y582930D01*
X1003135D01*
X1005674Y585469D01*
Y595626D01*
X1003135Y598165D01*
X998057D01*
X995518Y595626D01*
Y593087D01*
X998057Y590547D01*
X1005674D01*
X1010753Y595626D02*
X1013292Y598165D01*
X1018370D01*
X1020909Y595626D01*
Y593087D01*
X1018370Y590547D01*
X1015831D01*
X1018370D01*
X1020909Y588008D01*
Y585469D01*
X1018370Y582930D01*
X1013292D01*
X1010753Y585469D01*
X1025988Y595626D02*
X1028527Y598165D01*
X1033605D01*
X1036144Y595626D01*
Y585469D01*
X1033605Y582930D01*
X1028527D01*
X1025988Y585469D01*
Y595626D01*
X1041223Y582930D02*
Y593087D01*
X1043762D01*
X1046301Y590547D01*
Y582930D01*
Y590547D01*
X1048840Y593087D01*
X1051379Y590547D01*
Y582930D01*
X1056458D02*
Y593087D01*
X1058997D01*
X1061536Y590547D01*
Y582930D01*
Y590547D01*
X1064075Y593087D01*
X1066615Y590547D01*
Y582930D01*
X1092006D02*
X1086928Y588008D01*
Y593087D01*
X1092006Y598165D01*
X1099624Y595626D02*
X1102163Y598165D01*
X1107241D01*
X1109781Y595626D01*
Y593087D01*
X1107241Y590547D01*
X1104702D01*
X1107241D01*
X1109781Y588008D01*
Y585469D01*
X1107241Y582930D01*
X1102163D01*
X1099624Y585469D01*
X1125016Y598165D02*
X1119937Y595626D01*
X1114859Y590547D01*
Y585469D01*
X1117398Y582930D01*
X1122477D01*
X1125016Y585469D01*
Y588008D01*
X1122477Y590547D01*
X1114859D01*
X1130094Y582930D02*
Y585469D01*
X1132633D01*
Y582930D01*
X1130094D01*
X1152947Y598165D02*
X1147868Y595626D01*
X1142790Y590547D01*
Y585469D01*
X1145329Y582930D01*
X1150407D01*
X1152947Y585469D01*
Y588008D01*
X1150407Y590547D01*
X1142790D01*
X1158025Y582930D02*
X1163103D01*
X1160564D01*
Y598165D01*
X1158025Y595626D01*
X1170721Y582930D02*
Y593087D01*
X1173260D01*
X1175799Y590547D01*
Y582930D01*
Y590547D01*
X1178338Y593087D01*
X1180878Y590547D01*
Y582930D01*
X1185956D02*
X1191034D01*
X1188495D01*
Y593087D01*
X1185956D01*
X1198652Y582930D02*
X1203730D01*
X1201191D01*
Y598165D01*
X1198652D01*
X1211348Y582930D02*
X1216426Y588008D01*
Y593087D01*
X1211348Y598165D01*
X790342Y557526D02*
X792881Y560065D01*
X797960D01*
X800499Y557526D01*
Y554987D01*
X797960Y552448D01*
X795420D01*
X797960D01*
X800499Y549908D01*
Y547369D01*
X797960Y544830D01*
X792881D01*
X790342Y547369D01*
X815734Y544830D02*
X805577D01*
X815734Y554987D01*
Y557526D01*
X813195Y560065D01*
X808116D01*
X805577Y557526D01*
X836047Y560065D02*
X846204D01*
X841125D01*
Y544830D01*
X853821D02*
X858900D01*
X861439Y547369D01*
Y552448D01*
X858900Y554987D01*
X853821D01*
X851282Y552448D01*
Y547369D01*
X853821Y544830D01*
X869056Y557526D02*
Y554987D01*
X866517D01*
X871596D01*
X869056D01*
Y547369D01*
X871596Y544830D01*
X881752Y554987D02*
X886831D01*
X889370Y552448D01*
Y544830D01*
X881752D01*
X879213Y547369D01*
X881752Y549908D01*
X889370D01*
X894448Y544830D02*
X899527D01*
X896987D01*
Y560065D01*
X894448D01*
X800499Y773430D02*
X790342D01*
X800499Y783587D01*
Y786126D01*
X797960Y788665D01*
X792881D01*
X790342Y786126D01*
Y748026D02*
X792881Y750565D01*
X797960D01*
X800499Y748026D01*
Y745487D01*
X797960Y742947D01*
X795420D01*
X797960D01*
X800499Y740408D01*
Y737869D01*
X797960Y735330D01*
X792881D01*
X790342Y737869D01*
X797960Y697230D02*
Y712465D01*
X790342Y704847D01*
X800499D01*
X797960Y659130D02*
Y674365D01*
X790342Y666748D01*
X800499D01*
X790342Y636265D02*
X800499D01*
Y633726D01*
X790342Y623569D01*
Y621030D01*
Y582930D02*
X795420D01*
X792881D01*
Y598165D01*
X790342Y595626D01*
X813195Y582930D02*
X803038D01*
X813195Y593087D01*
Y595626D01*
X810655Y598165D01*
X805577D01*
X803038Y595626D01*
D47*
X668993Y741680D02*
G03*
X668993Y741680I-6350J0D01*
G01*
X281733Y1207340D02*
G03*
X281733Y1207340I-4233J0D01*
G01*
X307334D02*
G03*
X307334Y1207340I-4233J0D01*
G01*
X332733D02*
G03*
X332733Y1207340I-4233J0D01*
G01*
X656293Y776605D02*
X659468D01*
X656293D02*
Y782955D01*
X659468D01*
Y786130D01*
X665818D01*
Y782955D02*
Y786130D01*
Y782955D02*
X668993D01*
Y776605D02*
Y782955D01*
X665818Y776605D02*
X668993D01*
X665818Y773430D02*
Y776605D01*
X659468Y773430D02*
X665818D01*
X659468D02*
Y776605D01*
X662643Y697230D02*
X668993Y709930D01*
X656293D02*
X668993D01*
X656293D02*
X662643Y697230D01*
X656293Y659130D02*
X662643Y662305D01*
X668993Y659130D01*
X665818Y665480D02*
X668993Y659130D01*
X665818Y665480D02*
X668993Y671830D01*
X662643Y668655D02*
X668993Y671830D01*
X656293D02*
X662643Y668655D01*
X656293Y671830D02*
X659468Y665480D01*
X656293Y659130D02*
X659468Y665480D01*
X656293Y621030D02*
X668993D01*
Y633730D01*
X656293D02*
X668993D01*
X656293Y621030D02*
Y633730D01*
X659468Y586105D02*
X662643Y582930D01*
X656293Y586105D02*
X659468D01*
X656293D02*
X659468Y589280D01*
X656293Y592455D02*
X659468Y589280D01*
X656293Y592455D02*
X659468D01*
X662643Y595630D01*
X665818Y592455D01*
X668993D01*
X665818Y589280D02*
X668993Y592455D01*
X665818Y589280D02*
X668993Y586105D01*
X665818D02*
X668993D01*
X662643Y582930D02*
X665818Y586105D01*
X298027Y738717D02*
X306493D01*
Y747183D01*
X298027D02*
X306493D01*
X298027Y738717D02*
Y747183D01*
X329777Y1113367D02*
X338243D01*
Y1121833D01*
X329777D02*
X338243D01*
X329777Y1113367D02*
Y1121833D01*
X389467Y1114637D02*
X397933D01*
Y1123103D01*
X389467D02*
X397933D01*
X389467Y1114637D02*
Y1123103D01*
X315807Y1057487D02*
X324273D01*
Y1065953D01*
X315807D02*
X324273D01*
X315807Y1057487D02*
Y1065953D01*
X389467Y1067647D02*
X397933D01*
Y1076113D01*
X389467D02*
X397933D01*
X389467Y1067647D02*
Y1076113D01*
X374227Y760307D02*
X382693D01*
Y768773D01*
X374227D02*
X382693D01*
X374227Y760307D02*
Y768773D01*
X392007Y751417D02*
X400473D01*
Y759883D01*
X392007D02*
X400473D01*
X392007Y751417D02*
Y759883D01*
X386457Y1208617D02*
X390690Y1210733D01*
X394923Y1208617D01*
X392807Y1212850D02*
X394923Y1208617D01*
X392807Y1212850D02*
X394923Y1217083D01*
X390690Y1214967D02*
X394923Y1217083D01*
X386457D02*
X390690Y1214967D01*
X386457Y1217083D02*
X388573Y1212850D01*
X386457Y1208617D02*
X388573Y1212850D01*
X436457Y1208617D02*
X440690Y1210733D01*
X444923Y1208617D01*
X442807Y1212850D02*
X444923Y1208617D01*
X442807Y1212850D02*
X444923Y1217083D01*
X440690Y1214967D02*
X444923Y1217083D01*
X436457D02*
X440690Y1214967D01*
X436457Y1217083D02*
X438573Y1212850D01*
X436457Y1208617D02*
X438573Y1212850D01*
X542713Y688653D02*
X544830Y686536D01*
X540597Y688653D02*
X542713D01*
X540597D02*
X542713Y690770D01*
X540597Y692886D02*
X542713Y690770D01*
X540597Y692886D02*
X542713D01*
X544830Y695003D01*
X546947Y692886D01*
X549063D01*
X546947Y690770D02*
X549063Y692886D01*
X546947Y690770D02*
X549063Y688653D01*
X546947D02*
X549063D01*
X544830Y686536D02*
X546947Y688653D01*
X542713Y714053D02*
X544830Y711936D01*
X540597Y714053D02*
X542713D01*
X540597D02*
X542713Y716170D01*
X540597Y718286D02*
X542713Y716170D01*
X540597Y718286D02*
X542713D01*
X544830Y720403D01*
X546947Y718286D01*
X549063D01*
X546947Y716170D02*
X549063Y718286D01*
X546947Y716170D02*
X549063Y714053D01*
X546947D02*
X549063D01*
X544830Y711936D02*
X546947Y714053D01*
X542713Y739453D02*
X544830Y737336D01*
X540597Y739453D02*
X542713D01*
X540597D02*
X542713Y741570D01*
X540597Y743686D02*
X542713Y741570D01*
X540597Y743686D02*
X542713D01*
X544830Y745803D01*
X546947Y743686D01*
X549063D01*
X546947Y741570D02*
X549063Y743686D01*
X546947Y741570D02*
X549063Y739453D01*
X546947D02*
X549063D01*
X544830Y737336D02*
X546947Y739453D01*
X542713Y764853D02*
X544830Y762736D01*
X540597Y764853D02*
X542713D01*
X540597D02*
X542713Y766970D01*
X540597Y769086D02*
X542713Y766970D01*
X540597Y769086D02*
X542713D01*
X544830Y771203D01*
X546947Y769086D01*
X549063D01*
X546947Y766970D02*
X549063Y769086D01*
X546947Y766970D02*
X549063Y764853D01*
X546947D02*
X549063D01*
X544830Y762736D02*
X546947Y764853D01*
X542713Y790253D02*
X544830Y788136D01*
X540597Y790253D02*
X542713D01*
X540597D02*
X542713Y792370D01*
X540597Y794486D02*
X542713Y792370D01*
X540597Y794486D02*
X542713D01*
X544830Y796603D01*
X546947Y794486D01*
X549063D01*
X546947Y792370D02*
X549063Y794486D01*
X546947Y792370D02*
X549063Y790253D01*
X546947D02*
X549063D01*
X544830Y788136D02*
X546947Y790253D01*
X542713Y815653D02*
X544830Y813536D01*
X540597Y815653D02*
X542713D01*
X540597D02*
X542713Y817770D01*
X540597Y819886D02*
X542713Y817770D01*
X540597Y819886D02*
X542713D01*
X544830Y822003D01*
X546947Y819886D01*
X549063D01*
X546947Y817770D02*
X549063Y819886D01*
X546947Y817770D02*
X549063Y815653D01*
X546947D02*
X549063D01*
X544830Y813536D02*
X546947Y815653D01*
X526203Y876613D02*
X528320Y874496D01*
X524087Y876613D02*
X526203D01*
X524087D02*
X526203Y878730D01*
X524087Y880846D02*
X526203Y878730D01*
X524087Y880846D02*
X526203D01*
X528320Y882963D01*
X530437Y880846D01*
X532553D01*
X530437Y878730D02*
X532553Y880846D01*
X530437Y878730D02*
X532553Y876613D01*
X530437D02*
X532553D01*
X528320Y874496D02*
X530437Y876613D01*
X526203Y902013D02*
X528320Y899896D01*
X524087Y902013D02*
X526203D01*
X524087D02*
X526203Y904130D01*
X524087Y906246D02*
X526203Y904130D01*
X524087Y906246D02*
X526203D01*
X528320Y908363D01*
X530437Y906246D01*
X532553D01*
X530437Y904130D02*
X532553Y906246D01*
X530437Y904130D02*
X532553Y902013D01*
X530437D02*
X532553D01*
X528320Y899896D02*
X530437Y902013D01*
X526203Y927413D02*
X528320Y925296D01*
X524087Y927413D02*
X526203D01*
X524087D02*
X526203Y929530D01*
X524087Y931646D02*
X526203Y929530D01*
X524087Y931646D02*
X526203D01*
X528320Y933763D01*
X530437Y931646D01*
X532553D01*
X530437Y929530D02*
X532553Y931646D01*
X530437Y929530D02*
X532553Y927413D01*
X530437D02*
X532553D01*
X528320Y925296D02*
X530437Y927413D01*
X526203Y952813D02*
X528320Y950696D01*
X524087Y952813D02*
X526203D01*
X524087D02*
X526203Y954930D01*
X524087Y957046D02*
X526203Y954930D01*
X524087Y957046D02*
X526203D01*
X528320Y959163D01*
X530437Y957046D01*
X532553D01*
X530437Y954930D02*
X532553Y957046D01*
X530437Y954930D02*
X532553Y952813D01*
X530437D02*
X532553D01*
X528320Y950696D02*
X530437Y952813D01*
X526203Y978213D02*
X528320Y976096D01*
X524087Y978213D02*
X526203D01*
X524087D02*
X526203Y980330D01*
X524087Y982446D02*
X526203Y980330D01*
X524087Y982446D02*
X526203D01*
X528320Y984563D01*
X530437Y982446D01*
X532553D01*
X530437Y980330D02*
X532553Y982446D01*
X530437Y980330D02*
X532553Y978213D01*
X530437D02*
X532553D01*
X528320Y976096D02*
X530437Y978213D01*
X526203Y1003613D02*
X528320Y1001496D01*
X524087Y1003613D02*
X526203D01*
X524087D02*
X526203Y1005730D01*
X524087Y1007846D02*
X526203Y1005730D01*
X524087Y1007846D02*
X526203D01*
X528320Y1009963D01*
X530437Y1007846D01*
X532553D01*
X530437Y1005730D02*
X532553Y1007846D01*
X530437Y1005730D02*
X532553Y1003613D01*
X530437D02*
X532553D01*
X528320Y1001496D02*
X530437Y1003613D01*
X502027Y1211157D02*
X506260Y1213273D01*
X510493Y1211157D01*
X508377Y1215390D02*
X510493Y1211157D01*
X508377Y1215390D02*
X510493Y1219623D01*
X506260Y1217507D02*
X510493Y1219623D01*
X502027D02*
X506260Y1217507D01*
X502027Y1219623D02*
X504143Y1215390D01*
X502027Y1211157D02*
X504143Y1215390D01*
X552027Y1211157D02*
X556260Y1213273D01*
X560493Y1211157D01*
X558377Y1215390D02*
X560493Y1211157D01*
X558377Y1215390D02*
X560493Y1219623D01*
X556260Y1217507D02*
X560493Y1219623D01*
X552027D02*
X556260Y1217507D01*
X552027Y1219623D02*
X554143Y1215390D01*
X552027Y1211157D02*
X554143Y1215390D01*
X539057Y599863D02*
X541173D01*
X539057D02*
Y604097D01*
X541173D01*
Y606213D01*
X545407D01*
Y604097D02*
Y606213D01*
Y604097D02*
X547523D01*
Y599863D02*
Y604097D01*
X545407Y599863D02*
X547523D01*
X545407Y597747D02*
Y599863D01*
X541173Y597747D02*
X545407D01*
X541173D02*
Y599863D01*
X463290Y620747D02*
X467523Y629213D01*
X459057D02*
X467523D01*
X459057D02*
X463290Y620747D01*
X411057Y599863D02*
X413173D01*
X411057D02*
Y604097D01*
X413173D01*
Y606213D01*
X417407D01*
Y604097D02*
Y606213D01*
Y604097D02*
X419523D01*
Y599863D02*
Y604097D01*
X417407Y599863D02*
X419523D01*
X417407Y597747D02*
Y599863D01*
X413173Y597747D02*
X417407D01*
X413173D02*
Y599863D01*
X494290Y620747D02*
X498523Y629213D01*
X490057D02*
X498523D01*
X490057D02*
X494290Y620747D01*
Y645747D02*
X498523Y654213D01*
X490057D02*
X498523D01*
X490057D02*
X494290Y645747D01*
X463290D02*
X467523Y654213D01*
X459057D02*
X467523D01*
X459057D02*
X463290Y645747D01*
D48*
X638989Y800100D02*
X1624248D01*
X638989Y571500D02*
X1624248D01*
X638989Y533400D02*
X1624248D01*
Y838200D01*
X638989D02*
X1624248D01*
X638989Y533400D02*
Y838200D01*
X1426432Y533400D02*
Y838200D01*
X1297940Y533400D02*
Y838200D01*
X956157Y533400D02*
Y838200D01*
X778912Y533400D02*
Y838200D01*
D49*
X1437863Y829812D02*
Y811530D01*
Y820671D01*
X1450051D01*
Y829812D01*
Y811530D01*
X1459191D02*
X1465286D01*
X1468333Y814577D01*
Y820671D01*
X1465286Y823718D01*
X1459191D01*
X1456145Y820671D01*
Y814577D01*
X1459191Y811530D01*
X1474427D02*
X1480521D01*
X1477474D01*
Y829812D01*
X1474427D01*
X1498803Y811530D02*
X1492709D01*
X1489662Y814577D01*
Y820671D01*
X1492709Y823718D01*
X1498803D01*
X1501850Y820671D01*
Y817624D01*
X1489662D01*
X1526226Y829812D02*
X1538414D01*
X1532320D01*
Y811530D01*
X1544508Y823718D02*
Y814577D01*
X1547555Y811530D01*
X1556696D01*
Y808483D01*
X1553649Y805436D01*
X1550602D01*
X1556696Y811530D02*
Y823718D01*
X1562790Y805436D02*
Y823718D01*
X1571931D01*
X1574978Y820671D01*
Y814577D01*
X1571931Y811530D01*
X1562790D01*
X1590213D02*
X1584119D01*
X1581072Y814577D01*
Y820671D01*
X1584119Y823718D01*
X1590213D01*
X1593260Y820671D01*
Y817624D01*
X1581072D01*
X1309370Y811530D02*
Y829812D01*
X1318511D01*
X1321558Y826765D01*
Y820671D01*
X1318511Y817624D01*
X1309370D01*
X1327652Y811530D02*
X1333746D01*
X1330699D01*
Y829812D01*
X1327652D01*
X1345934Y823718D02*
X1352028D01*
X1355075Y820671D01*
Y811530D01*
X1345934D01*
X1342887Y814577D01*
X1345934Y817624D01*
X1355075D01*
X1364216Y826765D02*
Y823718D01*
X1361169D01*
X1367263D01*
X1364216D01*
Y814577D01*
X1367263Y811530D01*
X1385545D02*
X1379451D01*
X1376404Y814577D01*
Y820671D01*
X1379451Y823718D01*
X1385545D01*
X1388592Y820671D01*
Y817624D01*
X1376404D01*
X1406875Y829812D02*
Y811530D01*
X1397733D01*
X1394686Y814577D01*
Y820671D01*
X1397733Y823718D01*
X1406875D01*
X979775Y829812D02*
X967587D01*
Y820671D01*
X973681D01*
X967587D01*
Y811530D01*
X985869D02*
X991963D01*
X988916D01*
Y823718D01*
X985869D01*
X1001104Y811530D02*
Y823718D01*
X1010245D01*
X1013292Y820671D01*
Y811530D01*
X1019386D02*
X1025480D01*
X1022433D01*
Y823718D01*
X1019386D01*
X1034621Y811530D02*
X1043762D01*
X1046809Y814577D01*
X1043762Y817624D01*
X1037668D01*
X1034621Y820671D01*
X1037668Y823718D01*
X1046809D01*
X1052903Y829812D02*
Y811530D01*
Y820671D01*
X1055950Y823718D01*
X1062044D01*
X1065091Y820671D01*
Y811530D01*
X1080326D02*
X1074232D01*
X1071185Y814577D01*
Y820671D01*
X1074232Y823718D01*
X1080326D01*
X1083373Y820671D01*
Y817624D01*
X1071185D01*
X1101655Y829812D02*
Y811530D01*
X1092514D01*
X1089467Y814577D01*
Y820671D01*
X1092514Y823718D01*
X1101655D01*
X1126031Y829812D02*
Y811530D01*
Y820671D01*
X1138219D01*
Y829812D01*
Y811530D01*
X1147360D02*
X1153454D01*
X1156501Y814577D01*
Y820671D01*
X1153454Y823718D01*
X1147360D01*
X1144313Y820671D01*
Y814577D01*
X1147360Y811530D01*
X1162596D02*
X1168689D01*
X1165642D01*
Y829812D01*
X1162596D01*
X1186972Y811530D02*
X1180878D01*
X1177831Y814577D01*
Y820671D01*
X1180878Y823718D01*
X1186972D01*
X1190019Y820671D01*
Y817624D01*
X1177831D01*
X1226583Y826765D02*
X1223536Y829812D01*
X1217442D01*
X1214395Y826765D01*
Y823718D01*
X1217442Y820671D01*
X1223536D01*
X1226583Y817624D01*
Y814577D01*
X1223536Y811530D01*
X1217442D01*
X1214395Y814577D01*
X1232677Y811530D02*
X1238771D01*
X1235724D01*
Y823718D01*
X1232677D01*
X1247912D02*
X1260100D01*
X1247912Y811530D01*
X1260100D01*
X1275335D02*
X1269241D01*
X1266194Y814577D01*
Y820671D01*
X1269241Y823718D01*
X1275335D01*
X1278382Y820671D01*
Y817624D01*
X1266194D01*
X790342Y829812D02*
Y811530D01*
Y820671D01*
X802530D01*
Y829812D01*
Y811530D01*
X808624D02*
X814718D01*
X811671D01*
Y823718D01*
X808624D01*
X826906Y826765D02*
Y823718D01*
X823859D01*
X829953D01*
X826906D01*
Y814577D01*
X829953Y811530D01*
X869564Y826765D02*
X866517Y829812D01*
X860423D01*
X857376Y826765D01*
Y814577D01*
X860423Y811530D01*
X866517D01*
X869564Y814577D01*
X878705Y811530D02*
X884799D01*
X887846Y814577D01*
Y820671D01*
X884799Y823718D01*
X878705D01*
X875658Y820671D01*
Y814577D01*
X878705Y811530D01*
X893940Y823718D02*
Y814577D01*
X896987Y811530D01*
X906128D01*
Y823718D01*
X912223Y811530D02*
Y823718D01*
X921364D01*
X924410Y820671D01*
Y811530D01*
X933552Y826765D02*
Y823718D01*
X930505D01*
X936599D01*
X933552D01*
Y814577D01*
X936599Y811530D01*
X674038Y826765D02*
X670991Y829812D01*
X664896D01*
X661850Y826765D01*
Y823718D01*
X664896Y820671D01*
X670991D01*
X674038Y817624D01*
Y814577D01*
X670991Y811530D01*
X664896D01*
X661850Y814577D01*
X680132Y823718D02*
Y814577D01*
X683179Y811530D01*
X692320D01*
Y808483D01*
X689273Y805436D01*
X686226D01*
X692320Y811530D02*
Y823718D01*
X698414Y811530D02*
Y823718D01*
X701461D01*
X704508Y820671D01*
Y811530D01*
Y820671D01*
X707555Y823718D01*
X710602Y820671D01*
Y811530D01*
X716696Y829812D02*
Y811530D01*
X725837D01*
X728884Y814577D01*
Y817624D01*
Y820671D01*
X725837Y823718D01*
X716696D01*
X738025Y811530D02*
X744119D01*
X747166Y814577D01*
Y820671D01*
X744119Y823718D01*
X738025D01*
X734978Y820671D01*
Y814577D01*
X738025Y811530D01*
X753260D02*
X759354D01*
X756307D01*
Y829812D01*
X753260D01*
M02*
