%FSLAX44Y44*%
%MOMM*%
G71*
G01*
G75*
G04 Layer_Color=8388736*
%ADD10R,1.6000X2.1800*%
%ADD11R,0.9000X0.6000*%
%ADD12R,0.6000X0.9000*%
%ADD13R,0.6000X2.0000*%
%ADD14R,5.5000X1.5000*%
%ADD15R,2.0000X0.8400*%
%ADD16R,2.0000X3.1000*%
%ADD17C,0.5000*%
%ADD18C,0.2540*%
%ADD19C,0.3000*%
%ADD20C,1.0000*%
%ADD21C,0.4000*%
%ADD22C,1.5000*%
%ADD23R,2.0000X2.0000*%
%ADD24C,2.0000*%
%ADD25C,1.6000*%
%ADD26C,3.0000*%
%ADD27C,1.7000*%
%ADD28C,1.2700*%
%ADD29C,0.2000*%
%ADD30C,0.1000*%
%ADD31R,1.8032X2.3832*%
%ADD32R,1.1032X0.8032*%
%ADD33R,0.8032X1.1032*%
%ADD34R,0.8032X2.2032*%
%ADD35R,5.7032X1.7032*%
%ADD36R,2.2032X1.0432*%
%ADD37R,2.2032X3.3032*%
%ADD38C,1.7032*%
%ADD39R,2.2032X2.2032*%
%ADD40C,2.2032*%
%ADD41C,1.8032*%
%ADD42C,3.2032*%
%ADD43C,1.9032*%
%ADD44C,1.4732*%
D31*
X528320Y1157690D02*
D03*
Y1063690D02*
D03*
D32*
X383540Y578690D02*
D03*
Y567690D02*
D03*
X448310Y1100660D02*
D03*
Y1089660D02*
D03*
X477520Y1187020D02*
D03*
Y1176020D02*
D03*
X361950Y1171370D02*
D03*
Y1182370D02*
D03*
X290830Y1107010D02*
D03*
Y1096010D02*
D03*
X487680Y1090090D02*
D03*
Y1101090D02*
D03*
X408940Y1090090D02*
D03*
Y1101090D02*
D03*
X344170Y676070D02*
D03*
Y687070D02*
D03*
D33*
X303100Y1153160D02*
D03*
X292100D02*
D03*
X349680Y763270D02*
D03*
X360680D02*
D03*
X348410Y731520D02*
D03*
X359410D02*
D03*
X289990Y922020D02*
D03*
X300990D02*
D03*
X349680Y918210D02*
D03*
X360680D02*
D03*
X403020Y920750D02*
D03*
X414020D02*
D03*
X452550Y749300D02*
D03*
X463550D02*
D03*
D34*
X481330Y787220D02*
D03*
Y881220D02*
D03*
X466580Y787220D02*
D03*
X451830D02*
D03*
X422330D02*
D03*
X437080D02*
D03*
X378330D02*
D03*
X363580D02*
D03*
X393080D02*
D03*
X407830D02*
D03*
X348830D02*
D03*
X319330D02*
D03*
X334080D02*
D03*
Y881220D02*
D03*
X319330D02*
D03*
X348830D02*
D03*
X407830D02*
D03*
X393080D02*
D03*
X363580D02*
D03*
X378330D02*
D03*
X437080D02*
D03*
X422330D02*
D03*
X451830D02*
D03*
X466580D02*
D03*
X289830D02*
D03*
X304580D02*
D03*
Y787220D02*
D03*
X289830D02*
D03*
D35*
X341320Y977900D02*
D03*
X429320D02*
D03*
D36*
X344170Y605650D02*
D03*
Y628650D02*
D03*
Y651650D02*
D03*
D37*
X289560Y628650D02*
D03*
D38*
X277500Y1207340D02*
D03*
X303100D02*
D03*
X328500D02*
D03*
D39*
X390690Y1212850D02*
D03*
X506260Y1215390D02*
D03*
D40*
X440690Y1212850D02*
D03*
X556260Y1215390D02*
D03*
D41*
X544830Y690770D02*
D03*
Y716170D02*
D03*
Y741570D02*
D03*
Y766970D02*
D03*
Y792370D02*
D03*
Y817770D02*
D03*
X528320Y878730D02*
D03*
Y904130D02*
D03*
Y929530D02*
D03*
Y954930D02*
D03*
Y980330D02*
D03*
Y1005730D02*
D03*
D42*
X543290Y601980D02*
D03*
X415290D02*
D03*
D43*
X463290Y624980D02*
D03*
X494290D02*
D03*
Y649980D02*
D03*
X463290D02*
D03*
D44*
X302260Y742950D02*
D03*
X334010Y1117600D02*
D03*
X393700Y1118870D02*
D03*
X320040Y1061720D02*
D03*
X393700Y1071880D02*
D03*
X378460Y764540D02*
D03*
X396240Y755650D02*
D03*
M02*
